<?xml version="1.0" ?><svg enable-background="new 0 0 196 144" id="youtube" version="1.1" viewBox="0 0 196 144" xml:space="preserve" xmlns="http://www.w3.org/2000/svg" xmlns:xlink="http://www.w3.org/1999/xlink"><g><path d="M157.0234,0H38.9766C17.4844,0,0,17.5391,0,39.0977v65.8047C0,126.4609,17.4844,144,38.9766,144h118.0469   C178.5156,144,196,126.4609,196,104.9023V39.0977C196,17.5391,178.5156,0,157.0234,0z" fill="#535353"/><path d="M188,104.9023C188,122.0488,174.1035,136,157.0234,136H38.9766C21.8965,136,8,122.0488,8,104.9023V39.0977   C8,21.9512,21.8965,8,38.9766,8h118.0469C174.1035,8,188,21.9512,188,39.0977V104.9023z" fill="#D8D8D8"/><path d="M133.4414,70.5527L78.0215,38.0918c-1.2305-0.7207-2.7656-0.7324-4.0098-0.0195S72,40.1094,72,41.543   v64.9141c0,1.4336,0.7676,2.7578,2.0098,3.4707c0.6172,0.3535,1.3047,0.5293,1.9902,0.5293c0.6992,0,1.3965-0.1836,2.0215-0.5488   l55.4199-32.4531c1.2246-0.7168,1.9785-2.0312,1.9785-3.4512S134.668,71.2695,133.4414,70.5527z" fill="#535353"/><polygon fill="#FFFFFF" points="80,99.4785 80,48.5215 123.5039,74.0039  "/></g></svg>